<?xml version="1.0" encoding="utf-8"?>
<!-- Generator: Adobe Illustrator 12.0.0, SVG Export Plug-In . SVG Version: 6.00 Build 51448)  -->
<!DOCTYPE svg PUBLIC "-//W3C//DTD SVG 1.1//EN" "http://www.w3.org/Graphics/SVG/1.1/DTD/svg11.dtd" [
	<!ENTITY ns_svg "http://www.w3.org/2000/svg">
	<!ENTITY ns_xlink "http://www.w3.org/1999/xlink">
]>
<svg  version="1.1" id="Layer_1" xmlns="&ns_svg;" xmlns:xlink="&ns_xlink;" width="712.07" height="410.552"
	 viewBox="0 0 712.07 410.552" overflow="visible" enable-background="new 0 0 712.07 410.552" xml:space="preserve">
<g>
	<g>
		<g>
			<path fill="#646567" d="M7.338,117.132c-1.089,0.106-1.938-1.351-2.547-4.379c-0.606-3.035-0.71-9.26-0.31-18.677
				c0.237-5.565,0.698-9.117,1.383-10.656c0.686-1.538,1.455-2.334,2.309-2.39c0.389-0.025,0.774,0.009,1.158,0.097
				c0.383,0.09,0.886,0.114,1.507,0.074c1.864-0.121,3.787-0.721,5.769-1.799c1.982-1.072,4.29-3.005,6.924-5.786
				c2.634-2.769,5.684-6.698,9.151-11.771c3.464-5.042,7.571-11.576,12.32-19.582c0.077-0.002,0.176-0.06,0.297-0.175
				c0.121-0.113,0.259-0.174,0.414-0.178c0.466-0.014,0.991,0.383,1.577,1.188c0.585,0.804,1.16,1.864,1.725,3.179
				c0.565,1.316,1.03,2.684,1.397,4.105c0.367,1.42,0.525,2.745,0.475,3.973c-0.026,0.616-0.082,1.029-0.168,1.237
				c-0.713,5.972-1.424,10.974-2.134,15.009c-0.71,4.039-1.34,7.565-1.891,10.574c-0.552,3.014-1.017,5.817-1.396,8.412
				c-0.38,2.595-0.638,5.54-0.775,8.833c-0.034,0.827,0.032,1.23,0.2,1.217l0.138-0.32c0.508-1.067,1.408-3.145,2.697-6.221
				c1.288-3.069,2.831-6.662,4.626-10.773c1.794-4.099,3.809-8.352,6.041-12.754c2.23-4.385,4.546-8.456,6.943-12.208
				c2.396-3.736,4.862-6.808,7.396-9.213c2.534-2.394,5-3.628,7.4-3.708c2.167-0.071,4.118,0.905,5.853,2.924
				c1.736,2.011,3.188,4.813,4.357,8.405c1.17,3.583,2.022,7.859,2.556,12.833c0.534,4.966,0.683,10.388,0.444,16.277
				c-0.341,8.442-1.307,17.477-2.899,27.125c-1.594,9.67-3.638,19.467-6.136,29.401c-2.5,9.978-5.342,19.698-8.523,29.174
				c-3.185,9.526-6.533,18.284-10.046,26.271c-3.516,8.035-7.105,14.978-10.765,20.815c-3.664,5.876-7.216,9.989-10.655,12.327
				c-0.958,0.604-1.893,1.105-2.804,1.499c-0.911,0.397-1.836,0.69-2.777,0.89c-2.04,0.428-3.862,0.301-5.466-0.391
				c-1.604-0.693-2.344-2.492-2.223-5.395c0.061-1.449,0.24-2.974,0.541-4.576c0.301-1.602,0.642-3.26,1.025-4.978
				c1.086-5.545,1.988-9.919,2.705-13.127c0.717-3.204,1.661-4.911,2.835-5.12c0.313-0.057,0.642-0.012,0.985,0.129
				c0.343,0.142,0.752,0.27,1.226,0.385c0.756,0.472,1.683,0.606,2.779,0.41c2.268-0.408,4.965-3.172,8.088-8.274
				c3.121-5.076,6.163-11.522,9.124-19.328c2.958-7.769,5.528-16.494,7.71-26.179c2.179-9.651,3.469-19.368,3.87-29.174
				c0.312-7.606-0.256-13.638-1.7-18.104c-1.443-4.481-3.525-6.622-6.246-6.407c-2.876,0.227-5.818,2.536-8.829,6.94
				c-3.012,4.43-5.762,9.57-8.253,15.425c-2.492,5.88-4.621,11.849-6.385,17.894c-1.765,6.063-2.83,10.666-3.193,13.799
				c-0.814,6.488-1.676,13.656-2.586,21.509c-0.911,7.86-1.889,15.944-2.935,24.258c-1.048,8.324-2.13,16.563-3.249,24.715
				c-1.12,8.166-2.293,15.785-3.522,22.86c-2.243,12.691-4.294,23.1-6.152,31.207c-1.859,8.131-3.552,14.58-5.075,19.336
				c-1.524,4.768-2.97,8.115-4.335,10.043c-1.367,1.932-2.68,3.066-3.939,3.404c-2.048,0.551-3.507-0.846-4.376-4.186
				c-0.869-3.35-1.168-8.223-0.897-14.611c0.371-8.734,1.634-18.785,3.787-30.121c2.15-11.305,4.554-23.102,7.211-35.377
				c2.653-12.228,5.251-24.557,7.794-36.988c2.539-12.385,4.432-24.165,5.679-35.369c0.367-3.17,0.897-7.969,1.595-14.4
				c0.696-6.425,1.167-12.561,1.413-18.414c0.193-4.599,0.144-8.496-0.148-11.701s-1.016-4.864-2.173-4.981
				c-1.011,0.082-2.209,1.388-3.594,3.914c-1.386,2.533-3.593,5.726-6.624,9.586c-2.374,2.972-4.057,4.722-5.048,5.239
				C9.001,116.759,8.117,117.056,7.338,117.132z"/>
			<path fill="#646567" d="M94.613,185.194c-0.368-0.518-0.887-1.104-1.559-1.766c-0.672-0.66-1.343-1.322-2.015-1.986
				c-0.671-0.666-1.271-1.196-1.798-1.596c-0.527-0.398-0.907-0.58-1.142-0.539c-1.602,8.865-3.443,17.404-5.525,25.625
				c-2.083,8.246-4.221,15.895-6.412,22.938c-2.193,7.072-4.354,13.321-6.482,18.743c-2.127,5.442-4,9.849-5.617,13.211
				c-1.096,2.056-2.031,3.028-2.805,2.918c-0.774-0.108-1.52-0.874-2.24-2.297c-0.79-1.606-0.821-3.698-0.093-6.267
				c0.729-2.565,1.822-5.513,3.281-8.836c2.916-6.621,5.434-13.029,7.553-19.228c2.118-6.177,3.922-12.271,5.411-18.284
				c1.488-6.001,2.742-11.994,3.763-17.984c1.02-5.981,1.971-12.187,2.854-18.619c-1.378-4.309-2.089-7.846-2.132-10.598
				c-0.042-2.752-0.063-5.117-0.059-7.092c-0.015-1.574,0.166-4.113,0.542-7.617c0.375-3.502,0.84-6.371,1.397-8.611
				c0.822-3.053,1.779-6.071,2.87-9.051c1.09-2.971,2.188-5.693,3.298-8.168c1.107-2.469,2.098-4.432,2.971-5.892
				c0.872-1.458,1.502-2.206,1.892-2.245c0.466-0.047,1.055,0.236,1.766,0.846c0.712,0.609,1.375,1.467,1.988,2.569
				c0.614,1.104,1.147,2.312,1.597,3.623c0.451,1.31,0.654,2.549,0.607,3.715c-1.209,4.992-2.13,9.087-2.762,12.272
				c-0.632,3.191-1.142,6.222-1.528,9.092c-0.387,2.873-0.359,4.572,0.086,5.095c2.806,3.49,5.627,6.615,8.465,9.38
				c2.838,2.746,5.639,5.525,8.4,8.342c0.657,1.041,1.02,2.176,1.087,3.4c0.067,1.229-0.027,2.625-0.284,4.191
				c-0.256,1.568-0.615,3.248-1.075,5.041c-0.46,1.798-0.881,3.589-1.263,5.371c-1.045,4.771-2.094,9.646-3.148,14.625
				c-1.054,4.988-2.029,9.918-2.924,14.791c-0.896,4.883-1.666,9.553-2.311,14.009c-0.645,4.46-1.037,8.433-1.177,11.918
				c-0.147,3.682,0.368,5.382,1.547,5.104c0.628-0.148,1.483-1.113,2.567-2.897c1.083-1.781,2.28-4.013,3.594-6.695
				c1.313-2.677,2.672-5.548,4.078-8.612c1.404-3.057,2.724-5.9,3.956-8.529c1.231-2.625,2.328-4.787,3.29-6.496
				c0.961-1.705,1.639-2.598,2.031-2.678c1.097-0.225,1.587,1.181,1.467,4.209c-0.083,2.086-0.39,4.453-0.922,7.104
				c-0.533,2.653-1.166,5.379-1.899,8.175c-2.092,7.635-4.462,14.413-7.109,20.336c-2.65,5.946-5.368,11.131-8.152,15.547
				c-2.786,4.438-5.456,7.903-8.006,10.396c-2.551,2.501-4.732,3.998-6.541,4.481c-2.989,0.799-4.912-0.726-5.767-4.582
				c-0.854-3.861-1.146-9.144-0.875-15.834c0.208-5.115,0.649-10.775,1.328-16.973c0.678-6.191,1.536-12.517,2.574-18.969
				c1.037-6.443,2.173-12.943,3.409-19.503C91.894,197.272,93.211,191.063,94.613,185.194z M87.715,140.087
				c0.016-0.394,0.002-1.027-0.04-1.902c-0.042-0.877-0.375-1.277-0.998-1.199c0.077-0.01,0.234,0.414,0.472,1.265
				c0.237,0.851,0.312,2.361,0.225,4.525C87.594,141.181,87.708,140.285,87.715,140.087z"/>
			<path fill="#646567" d="M146.562,128.442c0.779-0.098,1.491,0.552,2.134,1.945c0.644,1.392,1.2,3.065,1.667,5.026
				c0.467,1.959,0.792,4.117,0.972,6.478c0.18,2.358,0.239,4.365,0.174,6.024c-0.057,1.476-0.244,2.787-0.56,3.935
				c-0.317,1.148-0.794,1.953-1.434,2.416c-2.723,2.072-5.364,6.031-7.924,11.893c-2.562,5.889-4.881,12.503-6.956,19.844
				c-2.078,7.369-3.794,14.926-5.148,22.664c-1.356,7.754-2.141,14.37-2.355,19.838c-0.192,4.9,0.13,8.096,0.968,9.579
				c0.838,1.479,2.045,2.031,3.621,1.656c2.754-0.653,5.541-3.625,8.356-8.892c2.814-5.242,5.256-11.477,7.326-18.703
				c-1.854-2.354-3.257-5.78-4.21-10.278c-0.952-4.507-1.301-10.019-1.048-16.522c0.13-3.344,0.608-6.658,1.437-9.938
				c1.283-5.012,3.066-9.4,5.35-13.17c2.283-3.753,4.44-5.782,6.473-6.098c2.033-0.314,3.723,1.197,5.072,4.521
				c1.351,3.312,1.858,9.332,1.523,18.065c-0.077,2.002-0.214,4.104-0.412,6.31c-0.198,2.205-0.415,4.414-0.65,6.627
				c1.182-0.405,2.288-0.892,3.321-1.45c1.033-0.558,1.99-1.193,2.873-1.902c1.288-1.144,2.438-2.258,3.452-3.346
				c1.013-1.084,1.928-2.147,2.745-3.193c1.477-2.053,2.49-3.129,3.038-3.229c0.626-0.114,0.899,0.902,0.817,3.05
				c-0.115,3.041-0.593,5.889-1.432,8.537c-0.839,2.656-1.888,5.182-3.145,7.573c-1.01,1.989-2.089,3.774-3.238,5.354
				c-1.15,1.582-2.294,3.031-3.434,4.348c-2.273,2.462-4.467,4.373-6.582,5.73c-2.115,1.363-3.84,2.191-5.175,2.482
				c-1.89,6.598-4.088,13.107-6.595,19.527c-2.509,6.451-5.192,12.33-8.047,17.632c-2.858,5.329-5.818,9.786-8.881,13.366
				c-3.065,3.598-6.134,5.815-9.207,6.642c-1.891,0.509-3.525-0.039-4.904-1.646c-1.378-1.61-2.537-3.854-3.476-6.728
				c-0.937-2.878-1.605-6.165-2.004-9.854c-0.398-3.694-0.521-7.457-0.369-11.289c0.32-8.047,1.179-16.922,2.574-26.613
				c1.396-9.672,3.234-19.313,5.519-28.915c2.282-9.563,4.989-18.644,8.124-27.229c3.131-8.539,6.6-15.865,10.409-21.979
				c1.655-2.636,3.355-4.946,5.101-6.931C144.168,129.619,145.547,128.568,146.562,128.442z M150.368,177.438
				c0.014-0.368-0.003-0.959-0.052-1.773c-0.049-0.814-0.386-1.169-1.013-1.061c0.149,0.156,0.292,0.496,0.426,1.023
				c0.142,0.342,0.262,0.777,0.358,1.311c0.095,0.535,0.126,1.26,0.09,2.182l-0.032,0.828c0.021-0.553,0.06-1.016,0.117-1.393
				C150.316,178.181,150.353,177.808,150.368,177.438z"/>
			<path fill="#646567" d="M175.322,149.745c1.953-12.596,3.935-24.934,5.944-37.012c2.006-12.037,4.124-23.466,6.353-34.287
				c2.227-10.775,4.675-20.814,7.348-30.112c2.668-9.247,5.724-17.494,9.166-24.734c1.677-3.512,3.563-6.401,5.658-8.675
				c2.095-2.263,4.267-3.476,6.516-3.651c1.547,0,2.946,0.859,4.198,2.575c1.174,1.71,2.116,3.975,2.825,6.792
				c0.71,2.811,1.258,5.833,1.643,9.067c0.384,3.23,0.616,6.461,0.691,9.694c0.076,3.232,0.067,6.124-0.026,8.68
				c-0.273,7.5-1.017,15.152-2.232,22.974c-1.215,7.839-2.749,15.851-4.598,24.041c-1.925,8.059-4.142,16.134-6.651,24.24
				c-2.512,8.145-5.234,16.143-8.166,23.996c-2.934,7.898-5.991,15.43-9.173,22.588c-3.185,7.201-6.406,13.84-9.667,19.907
				c-0.217,1.63-0.676,4.492-1.374,8.597c-0.699,4.107-1.46,8.81-2.281,14.102c-0.823,5.3-1.693,10.839-2.611,16.617
				c-0.92,5.789-1.74,10.982-2.458,15.586c2.104-2.114,4.308-4.775,6.61-7.979c2.3-3.19,4.532-6.614,6.694-10.272
				c1.662-2.827,3.377-6.008,5.144-9.539c1.766-3.518,3.405-6.78,4.918-9.791c1.513-3.002,2.833-5.565,3.962-7.696
				c1.129-2.127,1.89-3.229,2.282-3.31c1.097-0.225,1.595,1.047,1.494,3.812c-0.115,3.113-0.649,6.528-1.605,10.255
				c-0.956,3.734-2.125,7.479-3.51,11.239c-1.386,3.771-2.821,7.304-4.306,10.599c-1.486,3.303-2.819,6.146-3.997,8.521
				c-1.18,2.383-2.537,4.815-4.071,7.297c-1.535,2.489-3.106,4.907-4.714,7.255c-1.608,2.355-3.229,4.542-4.865,6.566
				c-1.636,2.024-3.146,3.849-4.533,5.463c-1.473,1.82-2.652,3.119-3.538,3.898c-1.047,7.037-2.161,14.283-3.34,21.742
				c-1.181,7.467-2.215,14.639-3.1,21.508c0.663,5.123,1.417,10.426,2.264,15.912c0.847,5.467,1.159,11.158,0.934,17.078
				c-0.628,18.625-3.501,33.531-8.624,44.799c-5.129,11.359-11.833,18.803-20.105,22.248c-1.034,0.432-1.847,0.223-2.441-0.621
				c-0.592-0.85-0.821-3.031-0.685-6.547c0.079-2.039,0.298-4.131,0.654-6.277c0.358-2.148,0.695-4.287,1.012-6.414
				c1.052-6.969,2.024-13.391,2.917-19.277c0.893-5.877,1.76-11.648,2.604-17.311c0.844-5.658,1.688-11.354,2.534-17.084
				c0.847-5.729,1.703-11.723,2.568-17.98c0.229-1.885,0.476-3.73,0.741-5.535s0.515-3.74,0.75-5.805
				c-0.296-2.441-0.576-4.799-0.84-7.072c-0.262-2.279-0.473-4.391-0.632-6.338c-0.706-7.965-0.594-14.903,0.335-20.797
				c1.178-8.315,4.395-14.973,9.651-19.955l1.598-11.208L175.322,149.745z M155.535,282.823c0.192-0.957,0.297-1.664,0.315-2.12
				s0.08-1.062,0.187-1.813l0.353-3.075c-0.881,0.608-1.269,1.575-1.165,2.901C155.33,280.037,155.434,281.408,155.535,282.823z
				 M161.061,346.413c-0.192,0.961-0.348,1.951-0.466,2.979c-0.116,1.023-0.231,2.002-0.346,2.938
				c-0.42,2.83-0.819,5.609-1.198,8.342c-0.377,2.729-0.774,5.424-1.188,8.084c0.396-0.15,0.725-0.545,0.983-1.178
				c0.26-0.637,0.522-1.359,0.787-2.174c0.838-3.525,1.417-6.416,1.738-8.672c0.321-2.258,0.535-4.295,0.644-6.113
				c0.109-1.824,0.113-3.473,0.013-4.951c-0.099-1.482-0.151-3.201-0.154-5.16c-0.193,0.961-0.349,1.951-0.466,2.975
				C161.29,344.503,161.175,345.481,161.061,346.413z M215.881,38.715c-0.853,0.027-1.942,1.746-3.267,5.158
				c-1.327,3.422-2.797,8.117-4.411,14.088c-1.617,5.99-3.347,12.963-5.193,20.926c-1.847,7.991-3.697,16.532-5.548,25.625
				c-1.854,9.127-3.66,18.539-5.42,28.237c-1.763,9.729-3.361,19.2-4.793,28.402c4.173-7.701,8.244-17.38,12.211-29.013
				c3.961-11.545,7.415-23.594,10.361-36.162c1.468-6.171,2.723-12.35,3.765-18.544c1.041-6.18,1.86-12.121,2.457-17.826
				c0.371-3.799,0.624-7.507,0.756-11.121c0.158-4.303,0.12-6.965-0.113-7.989C216.453,39.472,216.185,38.879,215.881,38.715z"/>
			<path fill="#646567" d="M232.355,161.755c0.024-0.672,0.035-1.51,0.032-2.513c-0.003-1.002-0.084-1.991-0.244-2.97
				c-0.159-0.977-0.423-1.77-0.791-2.379c-0.368-0.607-0.943-0.85-1.726-0.721c-2.038,0.336-3.947,1.957-5.728,4.867
				c-1.781,2.922-3.38,6.71-4.796,11.367c-1.418,4.672-2.625,9.993-3.624,15.965c-0.999,5.982-1.735,12.264-2.209,18.829
				c-0.214,5.832,0.248,10.233,1.384,13.194c1.137,2.955,3.082,4.096,5.832,3.436c1.727-0.414,3.658-1.59,5.792-3.527
				c2.134-1.926,4.345-4.406,6.634-7.438c2.288-3.018,4.568-6.395,6.843-10.125c2.272-3.714,4.375-7.584,6.308-11.605
				c0.578-0.94,1.245-2.186,2-3.732c0.755-1.545,1.446-2.383,2.073-2.51c0.47-0.094,0.821,0.447,1.052,1.623
				c0.231,1.178,0.324,2.42,0.277,3.736c-0.099,2.791-0.683,6.1-1.752,9.922c-1.07,3.832-2.496,7.795-4.276,11.893
				c-1.781,4.111-3.838,8.263-6.168,12.459c-2.332,4.216-4.788,8.066-7.367,11.55c-2.581,3.5-5.24,6.492-7.979,8.976
				c-2.74,2.494-5.37,4.082-7.887,4.758c-3.385,0.908-6.243,0.779-8.577-0.389c-2.333-1.183-4.208-3.178-5.622-5.99
				c-1.415-2.824-2.396-6.287-2.945-10.381c-0.547-4.102-0.734-8.513-0.559-13.228c0.363-9.774,1.672-19.874,3.924-30.271
				c2.25-10.354,5.167-19.881,8.752-28.563c3.581-8.623,7.65-15.813,12.211-21.578c4.558-5.712,9.371-8.892,14.444-9.58
				c1.873-0.253,3.463,0.321,4.772,1.72c1.31,1.395,2.39,3.23,3.241,5.504c0.851,2.271,1.442,4.783,1.772,7.535
				c0.33,2.75,0.454,5.281,0.372,7.602c-0.111,3.143-0.729,6.82-1.851,11.044c-1.123,4.231-2.541,8.53-4.253,12.896
				c-1.713,4.381-3.621,8.731-5.723,13.055c-2.103,4.342-4.229,8.246-6.379,11.716c-2.151,3.483-4.204,6.368-6.157,8.653
				c-1.954,2.293-3.598,3.594-4.934,3.898c-0.079,0.018-0.314,0.07-0.707,0.161c-0.393,0.089-0.858,0.026-1.395-0.192
				c-1.541-0.5-2.637-1.951-3.288-4.359c-0.652-2.412-0.955-4.223-0.911-5.426s0.425-2.051,1.144-2.547
				c2.063-0.947,4.197-2.755,6.401-5.418c2.204-2.652,4.207-5.716,6.01-9.189c1.803-3.463,3.319-7.11,4.549-10.946
				C231.56,168.712,232.234,165.119,232.355,161.755z"/>
			<path fill="#646567" d="M300.27,174.554c0.391-0.08,0.688,0.319,0.893,1.199c0.204,0.879,0.283,2.014,0.237,3.402
				c-0.134,4.018-1.267,8.833-3.4,14.464c-2.136,5.658-4.816,11.28-8.042,16.875c-3.229,5.634-6.786,10.604-10.672,14.91
				c-3.889,4.335-7.646,7.003-11.267,7.978c-0.867,0.232-1.771,0.432-2.713,0.601c-0.942,0.165-1.882,0.288-2.82,0.368
				c-1.885,0.344-3.7,0.387-5.446,0.131c-1.746-0.262-3.362-0.887-4.848-1.872c-1.486-0.991-2.778-2.485-3.877-4.485
				c-1.099-2.004-1.865-4.589-2.298-7.754c-0.08,0.02-0.112-0.136-0.101-0.468c0.047-1.319,0.75-3.576,2.109-6.765
				c1.359-3.181,2.747-6.072,4.164-8.681c1.416-2.598,2.37-4.274,2.864-5.036c0.494-0.758,1.172-1.234,2.037-1.429
				c0.471-0.104,0.734,0.161,0.79,0.794c0.604,2.771,1.58,4.93,2.93,6.469c1.349,1.534,2.651,2.149,3.909,1.854
				c0.786-0.186,1.389-0.729,1.81-1.627c3.494-6.391,5.91-12.102,7.253-17.158c1.341-5.041,2.091-9.869,2.25-14.495
				c0.109-3.188-0.006-6.06-0.346-8.608c-0.34-2.555-0.724-4.981-1.149-7.289c-0.426-2.308-0.851-4.658-1.274-7.053
				c-0.423-2.396-0.659-5.107-0.71-8.129c-1.826,5.57-3.939,11.569-6.34,18.01c-2.403,6.473-5.028,13.141-7.876,20.01
				c-2.851,6.908-5.855,13.77-9.017,20.584c-3.165,6.859-6.415,13.408-9.754,19.652c-0.664,1.151-1.193,1.776-1.586,1.875
				c-0.393,0.096-0.633-0.258-0.723-1.063c-0.087-0.807-0.108-1.875-0.061-3.211c0.197-5.506,0.993-10.322,2.385-14.442
				c1.394-4.106,2.765-7.623,4.115-10.549c1.855-4.011,3.802-8.437,5.842-13.271c2.037-4.813,4.151-10.151,6.342-16.011
				c2.188-5.831,4.493-12.264,6.916-19.292c2.42-6.992,5.02-14.699,7.797-23.111c-0.251-1.727-0.339-3.641-0.267-5.734
				c0.095-2.737,0.474-5.27,1.137-7.594c0.663-2.318,1.489-4.336,2.479-6.047c0.99-1.707,2.103-3.063,3.341-4.074
				c1.238-1.008,2.52-1.581,3.845-1.721c1.559-0.166,2.824,0.334,3.794,1.492c0.971,1.156,1.436,2.364,1.393,3.627
				c-0.326,2.713-0.634,5.465-0.923,8.256c-0.29,2.791-0.6,5.627-0.932,8.506c0.234,4.535,0.708,8.914,1.42,13.131
				c0.713,4.209,1.407,8.412,2.082,12.609c0.675,4.188,1.252,8.424,1.73,12.709c0.478,4.278,0.639,8.766,0.48,13.469
				c-0.09,2.666-0.3,5.435-0.631,8.306c-0.611,4.183-1.59,8.29-2.938,12.332c-1.35,4.056-3.226,8.086-5.629,12.101
				c2.576-2.488,4.93-5.341,7.063-8.562c2.131-3.206,4.007-6.304,5.624-9.292c1.617-2.979,2.985-5.514,4.106-7.6
				C298.887,175.765,299.722,174.666,300.27,174.554z"/>
			<path fill="#646567" d="M351.785,163.937c0.392-0.08,0.69,0.291,0.899,1.109c0.207,0.818,0.291,1.877,0.252,3.176
				c-0.117,3.756-1.23,8.272-3.341,13.565c-2.114,5.321-4.772,10.619-7.977,15.901c-3.208,5.32-6.748,10.031-10.62,14.125
				c-3.875,4.123-7.625,6.687-11.246,7.66c-0.867,0.232-1.771,0.435-2.713,0.607c-0.942,0.172-1.883,0.303-2.822,0.395
				c-1.885,0.354-3.702,0.424-5.451,0.213c-1.749-0.217-3.369-0.774-4.861-1.676c-1.491-0.906-2.791-2.287-3.899-4.146
				c-1.108-1.862-1.885-4.276-2.332-7.241c-0.08,0.02-0.113-0.125-0.103-0.438c0.042-1.239,0.736-3.367,2.083-6.381
				c1.348-3.004,2.725-5.736,4.133-8.203c1.406-2.457,2.354-4.045,2.845-4.766c0.491-0.718,1.168-1.174,2.033-1.367
				c0.471-0.104,0.735,0.142,0.793,0.732c0.616,2.592,1.603,4.602,2.959,6.023c1.356,1.418,2.663,1.977,3.92,1.68
				c0.786-0.186,1.388-0.703,1.805-1.553c3.47-6.038,5.865-11.422,7.188-16.178c1.322-4.738,2.052-9.271,2.191-13.604
				c0.096-2.988-0.032-5.674-0.383-8.059c-0.352-2.389-0.745-4.658-1.181-6.813c-0.437-2.155-0.872-4.354-1.305-6.593
				c-0.433-2.24-0.681-4.778-0.745-7.608c-1.804,5.238-3.893,10.882-6.269,16.945c-2.378,6.095-4.978,12.378-7.799,18.854
				c-2.824,6.517-5.804,12.991-8.94,19.43c-3.139,6.482-6.366,12.678-9.684,18.588c-0.66,1.093-1.187,1.688-1.58,1.783
				c-0.394,0.099-0.635-0.23-0.728-0.985c-0.091-0.755-0.116-1.758-0.073-3.015c0.175-5.174,0.952-9.709,2.329-13.598
				c1.378-3.875,2.736-7.193,4.076-9.959c1.84-3.789,3.771-7.968,5.792-12.531c2.02-4.541,4.113-9.574,6.281-15.098
				c2.165-5.492,4.445-11.552,6.841-18.167c2.393-6.579,4.961-13.829,7.706-21.737c-0.258-1.615-0.355-3.408-0.292-5.373
				c0.083-2.565,0.452-4.94,1.105-7.125c0.653-2.178,1.472-4.074,2.455-5.685c0.983-1.607,2.091-2.885,3.326-3.841
				c1.234-0.953,2.515-1.498,3.84-1.638c1.559-0.165,2.826,0.293,3.802,1.372c0.977,1.076,1.447,2.203,1.409,3.385
				c-0.314,2.541-0.611,5.119-0.888,7.734c-0.278,2.616-0.576,5.273-0.896,7.971c0.253,4.244,0.746,8.338,1.477,12.279
				c0.731,3.932,1.443,7.858,2.137,11.779c0.693,3.912,1.29,7.867,1.786,11.871c0.497,3.997,0.677,8.191,0.539,12.594
				c-0.079,2.494-0.277,5.086-0.596,7.776c-0.593,3.919-1.555,7.776-2.887,11.577c-1.333,3.813-3.194,7.613-5.583,11.404
				c2.568-2.365,4.912-5.07,7.034-8.115c2.12-3.029,3.983-5.952,5.59-8.771c1.605-2.81,2.964-5.194,4.076-7.161
				C350.406,165.087,351.235,164.05,351.785,163.937z"/>
			<path fill="#646567" d="M378.854,99.604c0.779-0.098,1.502,0.369,2.172,1.396c0.668,1.025,1.252,2.266,1.754,3.727
				c0.5,1.457,0.861,3.066,1.08,4.832c0.221,1.767,0.313,3.271,0.275,4.521c-0.033,1.11-0.199,2.103-0.496,2.974
				c-0.3,0.875-0.765,1.498-1.397,1.869c-2.695,1.662-5.278,4.742-7.748,9.256c-2.472,4.541-4.688,9.627-6.649,15.256
				c-1.965,5.658-3.563,11.445-4.796,17.357c-1.233,5.928-1.913,10.971-2.041,15.112c-0.112,3.716,0.263,6.11,1.128,7.185
				c0.866,1.068,2.088,1.414,3.663,1.041c2.755-0.656,5.503-3.056,8.242-7.183c2.737-4.101,5.085-8.92,7.043-14.458
				c-1.899-1.672-3.364-4.174-4.396-7.508c-1.029-3.344-1.471-7.475-1.323-12.381c0.075-2.523,0.5-5.039,1.276-7.543
				c1.205-3.824,2.92-7.2,5.147-10.125c2.228-2.908,4.356-4.516,6.39-4.83c2.032-0.314,3.752,0.75,5.16,3.185
				c1.41,2.423,2.021,6.901,1.832,13.446c-0.043,1.5-0.146,3.078-0.307,4.736c-0.162,1.656-0.342,3.317-0.54,4.983
				c1.178-0.36,2.28-0.778,3.307-1.246c1.026-0.467,1.978-0.987,2.851-1.56c1.271-0.915,2.408-1.803,3.406-2.66
				c0.998-0.855,1.896-1.693,2.698-2.51c1.447-1.598,2.444-2.446,2.993-2.547c0.626-0.113,0.917,0.629,0.872,2.229
				c-0.063,2.266-0.494,4.406-1.291,6.417c-0.796,2.017-1.806,3.948-3.024,5.792c-0.979,1.534-2.033,2.92-3.158,4.156
				c-1.127,1.24-2.252,2.381-3.373,3.424c-2.239,1.96-4.408,3.506-6.508,4.637c-2.101,1.135-3.817,1.85-5.152,2.141
				c-1.786,5.047-3.885,10.051-6.295,15.013c-2.411,4.991-5.008,9.569-7.787,13.733c-2.782,4.188-5.682,7.735-8.699,10.633
				c-3.02,2.914-6.066,4.791-9.139,5.617c-1.893,0.508-3.543,0.199-4.952-0.928c-1.41-1.133-2.61-2.759-3.598-4.879
				c-0.987-2.126-1.711-4.58-2.171-7.357c-0.458-2.781-0.643-5.631-0.552-8.551c0.192-6.129,0.912-12.918,2.156-20.352
				c1.245-7.414,2.934-14.818,5.07-22.208c2.135-7.351,4.703-14.343,7.707-20.968c3-6.576,6.357-12.236,10.076-16.982
				c1.614-2.043,3.281-3.84,4.998-5.391C376.477,100.565,377.839,99.729,378.854,99.604z M383.481,136.291
				c0.008-0.276-0.021-0.72-0.082-1.329c-0.063-0.609-0.407-0.861-1.033-0.753c0.152,0.111,0.301,0.361,0.443,0.751
				c0.148,0.25,0.275,0.572,0.381,0.969c0.104,0.396,0.146,0.939,0.127,1.633l-0.018,0.623c0.012-0.414,0.043-0.766,0.094-1.049
				C383.442,136.853,383.473,136.57,383.481,136.291z"/>
			<path fill="#646567" d="M425.104,127.548c-0.381-0.322-0.916-0.686-1.604-1.086c-0.689-0.402-1.377-0.806-2.066-1.211
				c-0.688-0.406-1.303-0.727-1.84-0.964c-0.539-0.237-0.924-0.336-1.158-0.297c-1.412,6.021-3.071,11.843-4.98,17.476
				c-1.911,5.658-3.891,10.93-5.938,15.807c-2.049,4.904-4.084,9.262-6.104,13.066c-2.02,3.824-3.807,6.938-5.357,9.33
				c-1.058,1.473-1.978,2.203-2.758,2.189c-0.779-0.012-1.546-0.471-2.301-1.375c-0.828-1.024-0.904-2.438-0.229-4.229
				s1.711-3.863,3.104-6.217c2.786-4.682,5.179-9.182,7.172-13.503c1.992-4.3,3.671-8.519,5.035-12.655
				c1.362-4.125,2.491-8.227,3.386-12.309c0.893-4.073,1.711-8.289,2.455-12.652c-1.479-2.82-2.27-5.16-2.371-7.007
				c-0.105-1.847-0.177-3.437-0.216-4.763c-0.049-1.057,0.077-2.771,0.377-5.143s0.704-4.318,1.214-5.846
				c0.758-2.084,1.65-4.149,2.68-6.191c1.027-2.035,2.068-3.902,3.127-5.601c1.056-1.694,2.004-3.043,2.848-4.051
				c0.842-1.005,1.457-1.527,1.848-1.566c0.465-0.047,1.063,0.123,1.788,0.506c0.728,0.383,1.41,0.932,2.05,1.647
				c0.639,0.716,1.2,1.502,1.682,2.36c0.48,0.856,0.712,1.675,0.691,2.455c-1.103,3.375-1.935,6.142-2.498,8.293
				c-0.563,2.155-1.006,4.199-1.33,6.132c-0.324,1.935-0.26,3.066,0.199,3.396c2.893,2.196,5.791,4.14,8.7,5.837
				c2.91,1.68,5.782,3.375,8.617,5.092c0.683,0.652,1.071,1.381,1.169,2.188c0.095,0.809,0.031,1.734-0.189,2.783
				c-0.223,1.052-0.543,2.183-0.966,3.394c-0.421,1.214-0.803,2.423-1.146,3.625c-0.941,3.218-1.885,6.507-2.83,9.868
				c-0.946,3.37-1.814,6.699-2.604,9.988c-0.791,3.297-1.459,6.445-2.008,9.445c-0.548,3.004-0.854,5.668-0.915,7.988
				c-0.065,2.452,0.491,3.537,1.671,3.26c0.629-0.147,1.467-0.854,2.516-2.121c1.048-1.264,2.201-2.832,3.461-4.705
				c1.259-1.869,2.561-3.867,3.902-5.992c1.342-2.119,2.604-4.09,3.781-5.91c1.178-1.814,2.229-3.314,3.157-4.508
				c0.927-1.186,1.587-1.819,1.979-1.899c1.098-0.224,1.621,0.663,1.57,2.657c-0.035,1.374-0.29,2.947-0.764,4.727
				c-0.475,1.779-1.049,3.614-1.721,5.506c-1.93,5.176-4.156,9.819-6.684,13.933c-2.529,4.14-5.145,7.79-7.845,10.944
				c-2.702,3.178-5.31,5.707-7.819,7.586c-2.511,1.888-4.671,3.076-6.479,3.561c-2.988,0.799-4.957-0.046-5.903-2.544
				c-0.944-2.504-1.354-6.006-1.229-10.498c0.094-3.435,0.414-7.25,0.959-11.44c0.543-4.188,1.266-8.475,2.164-12.855
				c0.899-4.373,1.896-8.787,2.992-13.244C422.643,135.763,423.829,131.542,425.104,127.548z M417.186,97.765
				c0.006-0.265-0.021-0.688-0.082-1.272c-0.062-0.584-0.403-0.84-1.026-0.763c0.075-0.008,0.243,0.269,0.501,0.828
				c0.256,0.562,0.363,1.568,0.324,3.021C417.088,98.503,417.182,97.897,417.186,97.765z"/>
			<path fill="#646567" d="M541.868,83.36c0.402-0.697,0.842-1.291,1.316-1.781c0.477-0.488,1.049-0.91,1.717-1.262
				s1.473-0.692,2.412-1.023c0.939-0.33,2.074-0.738,3.406-1.221c2.504-0.836,4.201-1.15,5.094-0.944
				c0.891,0.205,1.131,0.906,0.721,2.108c-0.002,0.104-0.23,0.971-0.688,2.601c-0.457,1.633-0.936,3.402-1.438,5.309
				c-0.5,1.91-0.979,3.687-1.438,5.333c-0.459,1.649-0.688,2.528-0.689,2.633c-1.24,3.994-2.457,8.659-3.645,14.002
				c-1.189,5.364-2.625,11.302-4.309,17.826c-1.686,6.559-3.715,13.661-6.09,21.321c-2.379,7.721-5.377,15.99-8.998,24.846
				c-0.742,1.854-1.936,4.607-3.576,8.277c-1.645,3.684-3.67,7.836-6.078,12.469c-2.412,4.662-5.242,9.578-8.492,14.76
				c-3.254,5.223-6.859,10.244-10.814,15.064c-0.646,0.803-1.152,1.439-1.516,1.914c-0.365,0.476-0.805,0.805-1.318,0.989
				c-0.516,0.187-1.223,0.181-2.125-0.015c-0.899-0.198-2.211-0.512-3.934-0.942c-0.938-0.249-1.856-0.507-2.756-0.772
				c-0.898-0.27-1.541-0.629-1.923-1.078c-0.384-0.453-0.428-1.111-0.133-1.973c0.296-0.865,1.207-2.025,2.735-3.48
				c3.211-2.951,6.34-6.662,9.385-11.122c3.041-4.429,5.895-9.245,8.557-14.446c2.658-5.166,5.105-10.598,7.342-16.293
				c2.232-5.66,4.148-11.197,5.748-16.619c1.43-4.801,2.652-9.227,3.674-13.283c1.02-4.045,1.871-7.519,2.555-10.424
				c-1.447,2.086-3.188,4.963-5.217,8.645c-2.031,3.701-4.336,7.438-6.918,11.209c-2.584,3.8-5.416,7.268-8.496,10.398
				c-3.082,3.155-6.396,5.223-9.941,6.178c-3.314,0.894-6.014,0.687-8.1-0.629c-2.086-1.326-3.723-3.375-4.911-6.143
				c-1.187-2.777-1.974-6.021-2.354-9.729c-0.383-3.713-0.527-7.545-0.435-11.489c0.282-11.959,2.552-23.769,6.799-35.321
				c4.239-11.412,9.813-22.006,16.72-31.741c6.893-9.532,14.801-17.99,23.721-25.375c8.908-7.176,18.244-12.882,28.012-17.17
				c1.873-0.816,3.783-1.5,5.73-2.049c1.947-0.546,3.465-0.943,4.555-1.194c1.244-0.254,2.25-0.215,3.021,0.114
				c0.77,0.328,1.361,0.764,1.779,1.309c0.418,0.544,0.719,1.118,0.902,1.721s0.313,1.005,0.387,1.205
				c0.074,0.201,0.281,0.65,0.617,1.346c0.338,0.694,0.578,1.444,0.721,2.249c0.143,0.806,0.053,1.623-0.271,2.456
				s-1.109,1.493-2.359,1.979c-0.391,0.128-1.133,0.431-2.227,0.91c-1.094,0.482-2.346,1.053-3.752,1.714
				c-1.408,0.665-2.836,1.333-4.283,2.008c-1.447,0.677-2.682,1.314-3.699,1.913c-3.449,1.944-7.221,4.332-11.311,7.176
				c-4.092,2.883-8.252,6.162-12.48,9.846c-4.23,3.734-8.355,7.892-12.377,12.481c-4.023,4.647-7.592,9.601-10.699,14.854
				c-3.113,5.304-5.67,10.882-7.666,16.727c-2,5.879-3.068,11.847-3.201,17.878c-0.037,1.625,0,3.464,0.109,5.52
				c0.111,2.055,0.381,3.986,0.809,5.793c0.43,1.807,1.08,3.272,1.955,4.396c0.873,1.119,2.057,1.507,3.549,1.163
				c1.178-0.271,2.67-1.493,4.475-3.661c1.805-2.156,3.734-4.838,5.795-8.037c2.059-3.18,4.199-6.749,6.428-10.699
				c2.227-3.924,4.354-7.832,6.381-11.725c2.025-3.868,3.912-7.551,5.654-11.055c1.742-3.482,3.145-6.489,4.205-9.028
				c1.068-2.854,1.826-4.847,2.275-5.987C540.92,85.152,541.385,84.176,541.868,83.36z"/>
			<path fill="#646567" d="M607.098,78.928c0.857-0.12,1.559-0.004,2.1,0.344c0.541,0.347,0.809,0.804,0.803,1.369
				c-0.006,0.472-0.248,1.072-0.725,1.801c-0.635,0.944-1.771,3.124-3.414,6.556c-1.643,3.453-3.313,7.386-5.01,11.802
				c-1.699,4.442-3.225,9-4.576,13.666c-1.354,4.69-2.055,8.65-2.098,11.86c-0.025,1.849,0.59,2.625,1.848,2.328
				c0.707-0.167,1.596-0.761,2.666-1.783c1.07-1.019,2.203-2.261,3.396-3.729c1.193-1.463,2.445-3.028,3.76-4.695
				c1.311-1.66,2.521-3.197,3.637-4.613c1.111-1.41,2.104-2.578,2.975-3.508c0.871-0.926,1.504-1.43,1.896-1.509
				c1.096-0.224,1.637,0.409,1.621,1.897c-0.041,3.539-1.139,7.172-3.297,10.926c-2.158,3.781-4.67,7.301-7.533,10.558
				c-2.863,3.287-5.723,6.122-8.576,8.496c-2.855,2.396-4.957,3.972-6.301,4.718c-1.188,0.686-2.488,1.219-3.904,1.598
				c-3.072,0.82-5.104,0.348-6.096-1.428c-0.992-1.781-1.461-4.426-1.408-7.929l0.018-1.052c-3.604,4.994-7.055,8.992-10.354,11.976
				c-3.301,3.011-6.523,4.944-9.67,5.785c-2.988,0.799-4.994,0.237-6.02-1.69c-1.02-1.938-1.498-4.705-1.436-8.295
				c0.064-3.588,0.475-7.861,1.225-12.811c0.752-4.938,1.738-9.938,2.957-14.994c1.221-5.035,2.568-9.84,4.053-14.412
				c1.479-4.549,3.023-8.39,4.633-11.524c0.402-0.882,1.273-1.783,2.615-2.698c1.338-0.911,2.811-1.735,4.42-2.475
				c1.607-0.737,3.193-1.341,4.76-1.814c1.564-0.471,2.816-0.771,3.754-0.903c0.938-0.131,1.676-0.009,2.215,0.363
				c0.539,0.372,0.807,0.856,0.797,1.453c-0.008,0.498-0.252,1.13-0.73,1.897c-0.639,0.992-1.783,3.285-3.438,6.896
				c-1.654,3.631-3.338,7.767-5.051,12.413c-1.713,4.672-3.254,9.466-4.623,14.375c-1.371,4.933-2.084,9.102-2.139,12.488
				c-0.029,1.744,0.387,2.617,1.248,2.617c2.123-0.602,4.023-2.139,5.707-4.602c1.682-2.446,3.191-5.271,4.531-8.471
				c1.34-3.184,2.563-6.478,3.668-9.885c1.105-3.393,2.146-6.414,3.121-9.068c1.381-3.701,2.6-6.939,3.654-9.72
				c1.053-2.77,2.295-5.142,3.727-7.118c1.43-1.966,3.264-3.569,5.5-4.809C600.241,80.343,603.272,79.463,607.098,78.928z"/>
			<path fill="#646567" d="M664.872,99.413c0.391-0.081,0.701,0.105,0.936,0.557c0.232,0.453,0.348,1.053,0.344,1.801
				c-0.01,2.166-1.002,4.863-2.977,8.107c-1.979,3.272-4.504,6.598-7.582,9.984c-3.082,3.424-6.518,6.543-10.303,9.354
				c-3.789,2.84-7.496,4.76-11.117,5.733c-0.867,0.233-1.771,0.452-2.717,0.658c-0.943,0.204-1.889,0.386-2.832,0.542
				c-1.891,0.414-3.719,0.654-5.484,0.718c-1.768,0.06-3.414-0.103-4.939-0.483c-1.525-0.386-2.873-1.08-4.039-2.082
				c-1.164-1.006-2.012-2.381-2.537-4.123c-0.08,0.021-0.117-0.063-0.115-0.252c0.008-0.752,0.65-2.101,1.928-4.043
				c1.275-1.934,2.588-3.703,3.939-5.313c1.35-1.601,2.26-2.638,2.734-3.113c0.477-0.474,1.145-0.808,2.008-1
				c0.473-0.104,0.744,0.019,0.818,0.366c0.689,1.49,1.736,2.596,3.141,3.316c1.402,0.715,2.732,0.922,3.99,0.625
				c0.785-0.186,1.377-0.549,1.773-1.092c3.328-3.9,5.59-7.298,6.791-10.219c1.199-2.906,1.809-5.634,1.83-8.193
				c0.016-1.767-0.188-3.336-0.605-4.713c-0.418-1.378-0.877-2.686-1.373-3.924c-0.498-1.24-0.994-2.505-1.492-3.796
				c-0.496-1.293-0.813-2.776-0.955-4.445c-1.67,3.219-3.613,6.708-5.838,10.477c-2.225,3.801-4.668,7.744-7.332,11.836
				c-2.664,4.132-5.488,8.27-8.471,12.413c-2.986,4.188-6.07,8.228-9.254,12.118c-0.635,0.727-1.15,1.139-1.543,1.236
				c-0.395,0.096-0.646-0.08-0.758-0.527c-0.111-0.449-0.164-1.057-0.154-1.821c0.041-3.155,0.705-5.979,1.988-8.46
				c1.283-2.469,2.563-4.596,3.836-6.383c1.75-2.442,3.582-5.123,5.492-8.034c1.908-2.892,3.879-6.075,5.91-9.548
				c2.029-3.445,4.156-7.225,6.387-11.333c2.225-4.072,4.607-8.539,7.148-13.388c-0.305-0.944-0.449-2.002-0.438-3.171
				c0.014-1.527,0.318-2.955,0.916-4.281c0.596-1.323,1.363-2.484,2.309-3.483c0.941-0.995,2.02-1.8,3.23-2.419
				c1.211-0.616,2.479-0.993,3.807-1.133c1.559-0.165,2.842,0.049,3.852,0.638c1.01,0.586,1.512,1.224,1.506,1.918
				c-0.244,1.502-0.471,3.025-0.678,4.57c-0.207,1.545-0.432,3.117-0.678,4.713c0.371,2.47,0.979,4.836,1.822,7.096
				c0.844,2.25,1.668,4.494,2.473,6.732c0.807,2.229,1.516,4.488,2.127,6.779c0.611,2.284,0.908,4.706,0.893,7.272
				c-0.01,1.455-0.137,2.977-0.383,4.566c-0.486,2.328-1.348,4.656-2.58,6.99c-1.236,2.344-3.002,4.737-5.301,7.186
				c2.52-1.633,4.803-3.438,6.854-5.41c2.049-1.959,3.842-3.828,5.379-5.605c1.535-1.77,2.836-3.27,3.898-4.5
				S664.323,99.527,664.872,99.413z"/>
			<path fill="#646567" d="M685.143,25.288c0.311-0.963,0.643-1.51,0.99-1.64c0.35-0.129,0.834-0.204,1.455-0.223
				c1.006,0.127,2.07,0.213,3.193,0.256c1.125,0.044,2.133,0.168,3.023,0.373s1.607,0.549,2.148,1.034
				c0.545,0.483,0.775,1.229,0.699,2.235c-0.467,1.334-1.068,3.143-1.807,5.43c-0.736,2.296-1.516,4.603-2.332,6.921
				c-0.818,2.328-1.635,4.371-2.455,6.127c-0.818,1.763-1.461,2.708-1.928,2.831c-0.391,0.036-0.914,0.043-1.576,0.019
				s-1.342-0.043-2.041-0.059c-0.701-0.015-1.363,0.005-1.984,0.063c-0.623,0.057-1.129,0.184-1.518,0.38
				c-0.623,0.058-0.953-0.011-0.992-0.209c-0.039-0.198,0.021-0.504,0.178-0.921c0.236-0.985,0.629-2.284,1.178-3.894
				c0.547-1.606,1.096-3.408,1.645-5.405c0.547-1.991,1.037-4.113,1.469-6.367C684.92,29.988,685.139,27.673,685.143,25.288z"/>
		</g>
	</g>
</g>
<g>
	<g>
		<path fill="#7CC143" stroke="#957348" stroke-width="5" d="M20.242,108.358c-1.089,0.105-1.938-1.352-2.547-4.381
			c-0.606-3.033-0.71-9.258-0.31-18.675c0.237-5.565,0.698-9.117,1.383-10.656c0.686-1.538,1.455-2.334,2.309-2.39
			c0.389-0.025,0.774,0.009,1.158,0.097c0.383,0.09,0.886,0.114,1.507,0.074c1.864-0.121,3.787-0.721,5.769-1.799
			c1.982-1.072,4.29-3.005,6.924-5.786c2.634-2.769,5.684-6.698,9.151-11.771c3.464-5.042,7.571-11.576,12.32-19.582
			c0.077-0.002,0.176-0.06,0.297-0.175c0.121-0.113,0.259-0.174,0.414-0.178c0.466-0.014,0.991,0.383,1.577,1.188
			c0.585,0.804,1.16,1.864,1.725,3.179c0.565,1.316,1.03,2.684,1.397,4.105c0.367,1.42,0.525,2.745,0.475,3.973
			c-0.026,0.616-0.082,1.029-0.168,1.237c-0.713,5.972-1.424,10.974-2.134,15.009c-0.71,4.039-1.34,7.565-1.891,10.574
			c-0.552,3.014-1.017,5.817-1.396,8.412c-0.38,2.595-0.638,5.54-0.775,8.834c-0.034,0.827,0.032,1.23,0.2,1.216l0.138-0.32
			c0.508-1.067,1.408-3.144,2.697-6.221c1.288-3.069,2.831-6.662,4.626-10.773c1.794-4.099,3.809-8.352,6.041-12.754
			c2.23-4.385,4.546-8.456,6.943-12.208c2.396-3.736,4.862-6.808,7.396-9.213c2.534-2.394,5-3.628,7.4-3.708
			c2.167-0.071,4.118,0.905,5.853,2.924c1.736,2.011,3.188,4.813,4.357,8.405c1.17,3.583,2.022,7.859,2.556,12.833
			c0.534,4.966,0.683,10.388,0.444,16.277c-0.341,8.442-1.307,17.477-2.899,27.125c-1.594,9.672-3.638,19.469-6.136,29.402
			c-2.5,9.978-5.342,19.698-8.523,29.174c-3.185,9.526-6.533,18.285-10.046,26.271c-3.516,8.034-7.105,14.977-10.765,20.814
			c-3.664,5.877-7.216,9.99-10.655,12.328c-0.958,0.604-1.893,1.104-2.804,1.498c-0.911,0.397-1.836,0.691-2.777,0.889
			c-2.04,0.429-3.862,0.302-5.466-0.389c-1.604-0.693-2.344-2.492-2.223-5.396c0.061-1.448,0.24-2.974,0.541-4.575
			c0.301-1.602,0.642-3.26,1.025-4.979c1.086-5.545,1.988-9.918,2.705-13.127c0.717-3.205,1.661-4.912,2.835-5.121
			c0.313-0.055,0.642-0.01,0.985,0.131c0.343,0.141,0.752,0.27,1.226,0.385c0.756,0.471,1.683,0.605,2.779,0.409
			c2.268-0.407,4.965-3.171,8.088-8.274c3.121-5.076,6.163-11.521,9.124-19.328c2.958-7.769,5.528-16.494,7.71-26.178
			c2.179-9.65,3.469-19.367,3.87-29.175c0.312-7.606-0.256-13.637-1.7-18.103c-1.443-4.481-3.525-6.622-6.246-6.407
			c-2.876,0.227-5.818,2.536-8.829,6.94c-3.012,4.43-5.762,9.57-8.253,15.424c-2.492,5.881-4.621,11.849-6.385,17.894
			c-1.765,6.063-2.83,10.667-3.193,13.8c-0.814,6.489-1.676,13.656-2.586,21.508c-0.911,7.861-1.889,15.945-2.935,24.258
			c-1.048,8.324-2.13,16.564-3.249,24.715c-1.12,8.166-2.293,15.785-3.522,22.861c-2.243,12.691-4.294,23.098-6.152,31.207
			c-1.859,8.131-3.552,14.579-5.075,19.336c-1.524,4.768-2.97,8.115-4.335,10.043c-1.367,1.932-2.68,3.066-3.939,3.404
			c-2.048,0.551-3.507-0.848-4.376-4.186c-0.869-3.35-1.168-8.223-0.897-14.612c0.371-8.733,1.634-18.784,3.787-30.121
			c2.15-11.304,4.554-23.101,7.211-35.377c2.653-12.228,5.251-24.556,7.794-36.987c2.539-12.385,4.432-24.166,5.679-35.371
			c0.367-3.168,0.897-7.969,1.595-14.399c0.696-6.425,1.167-12.56,1.413-18.414c0.193-4.599,0.144-8.495-0.148-11.7
			s-1.016-4.865-2.173-4.982c-1.011,0.082-2.209,1.387-3.594,3.914c-1.386,2.533-3.593,5.726-6.624,9.585
			c-2.374,2.973-4.057,4.722-5.048,5.239C21.905,107.984,21.02,108.282,20.242,108.358z"/>
		<path fill="#7CC143" stroke="#957348" stroke-width="5" d="M107.517,176.419c-0.368-0.517-0.887-1.104-1.559-1.766
			c-0.672-0.659-1.343-1.322-2.015-1.986c-0.671-0.666-1.271-1.195-1.798-1.595s-0.907-0.58-1.142-0.54
			c-1.602,8.865-3.443,17.404-5.525,25.625c-2.083,8.247-4.221,15.895-6.412,22.938c-2.193,7.072-4.354,13.321-6.482,18.744
			c-2.127,5.441-4,9.848-5.617,13.211c-1.096,2.055-2.031,3.027-2.805,2.918c-0.774-0.108-1.52-0.875-2.24-2.297
			c-0.79-1.606-0.821-3.699-0.093-6.268c0.729-2.564,1.822-5.512,3.281-8.836c2.916-6.621,5.434-13.029,7.553-19.227
			c2.118-6.178,3.922-12.271,5.411-18.285c1.488-6,2.742-11.994,3.763-17.984c1.02-5.98,1.971-12.186,2.854-18.619
			c-1.378-4.309-2.089-7.845-2.132-10.598c-0.042-2.752-0.063-5.117-0.059-7.092c-0.015-1.574,0.166-4.112,0.542-7.617
			c0.375-3.502,0.84-6.372,1.397-8.61c0.822-3.053,1.779-6.071,2.87-9.051c1.09-2.972,2.188-5.694,3.298-8.168
			c1.107-2.47,2.098-4.433,2.971-5.892c0.872-1.459,1.502-2.207,1.892-2.246c0.466-0.047,1.055,0.236,1.766,0.847
			c0.712,0.608,1.375,1.466,1.988,2.569c0.614,1.104,1.147,2.312,1.597,3.623c0.451,1.309,0.654,2.549,0.607,3.715
			c-1.209,4.992-2.13,9.086-2.762,12.272c-0.632,3.19-1.142,6.22-1.528,9.091c-0.387,2.873-0.359,4.572,0.086,5.094
			c2.806,3.49,5.627,6.615,8.465,9.379c2.838,2.748,5.639,5.527,8.4,8.343c0.657,1.042,1.02,2.176,1.087,3.401
			c0.067,1.229-0.027,2.625-0.284,4.19c-0.256,1.567-0.615,3.249-1.075,5.042c-0.46,1.797-0.881,3.588-1.263,5.371
			c-1.045,4.771-2.094,9.646-3.148,14.624c-1.054,4.987-2.029,9.918-2.924,14.792c-0.896,4.882-1.666,9.552-2.311,14.008
			c-0.645,4.46-1.037,8.434-1.177,11.918c-0.147,3.682,0.368,5.383,1.547,5.104c0.628-0.147,1.483-1.112,2.567-2.896
			c1.083-1.781,2.28-4.012,3.594-6.695c1.313-2.677,2.672-5.547,4.078-8.611c1.404-3.057,2.724-5.901,3.956-8.53
			c1.231-2.624,2.328-4.787,3.29-6.496c0.961-1.704,1.639-2.598,2.031-2.678c1.097-0.224,1.587,1.181,1.467,4.21
			c-0.083,2.086-0.39,4.453-0.922,7.104c-0.533,2.653-1.166,5.379-1.899,8.176c-2.092,7.635-4.462,14.412-7.109,20.334
			c-2.65,5.947-5.368,11.133-8.152,15.55c-2.786,4.437-5.456,7.901-8.006,10.394c-2.551,2.502-4.732,3.998-6.541,4.481
			c-2.989,0.799-4.912-0.726-5.767-4.581c-0.854-3.861-1.146-9.145-0.875-15.835c0.208-5.115,0.649-10.774,1.328-16.974
			c0.678-6.19,1.536-12.516,2.574-18.967c1.037-6.443,2.173-12.943,3.409-19.504C104.797,188.498,106.116,182.289,107.517,176.419z
			 M100.62,131.312c0.016-0.393,0.002-1.026-0.04-1.901s-0.375-1.276-0.998-1.198c0.077-0.011,0.234,0.413,0.472,1.264
			c0.237,0.852,0.312,2.361,0.225,4.525C100.498,132.407,100.61,131.511,100.62,131.312z"/>
		<path fill="#7CC143" stroke="#957348" stroke-width="5" d="M159.464,119.667c0.779-0.097,1.491,0.553,2.134,1.946
			c0.644,1.392,1.2,3.065,1.667,5.026c0.467,1.959,0.792,4.117,0.972,6.477c0.18,2.359,0.239,4.366,0.174,6.025
			c-0.057,1.476-0.244,2.787-0.56,3.934c-0.317,1.148-0.794,1.953-1.434,2.416c-2.723,2.072-5.364,6.031-7.924,11.893
			c-2.562,5.889-4.881,12.504-6.956,19.844c-2.078,7.369-3.794,14.927-5.148,22.664c-1.356,7.754-2.141,14.371-2.355,19.838
			c-0.192,4.9,0.13,8.097,0.968,9.58c0.838,1.479,2.045,2.031,3.621,1.656c2.754-0.654,5.541-3.625,8.356-8.893
			c2.814-5.242,5.256-11.477,7.326-18.702c-1.854-2.354-3.257-5.78-4.21-10.278c-0.952-4.508-1.301-10.019-1.048-16.522
			c0.13-3.345,0.608-6.658,1.437-9.938c1.283-5.011,3.066-9.4,5.35-13.17c2.283-3.752,4.44-5.781,6.473-6.098
			c2.033-0.314,3.723,1.195,5.072,4.521c1.351,3.312,1.858,9.332,1.523,18.064c-0.077,2.002-0.214,4.105-0.412,6.311
			c-0.198,2.205-0.415,4.414-0.65,6.627c1.182-0.406,2.288-0.893,3.321-1.451c1.033-0.557,1.99-1.192,2.873-1.901
			c1.288-1.144,2.438-2.259,3.452-3.345c1.013-1.086,1.928-2.149,2.745-3.194c1.477-2.054,2.49-3.13,3.038-3.229
			c0.626-0.114,0.899,0.902,0.817,3.049c-0.115,3.042-0.593,5.889-1.432,8.537c-0.839,2.656-1.888,5.183-3.145,7.574
			c-1.01,1.988-2.089,3.773-3.238,5.354c-1.15,1.582-2.294,3.031-3.434,4.348c-2.273,2.463-4.467,4.373-6.582,5.731
			c-2.115,1.362-3.84,2.19-5.175,2.481c-1.89,6.598-4.088,13.107-6.595,19.528c-2.509,6.451-5.192,12.329-8.047,17.63
			c-2.858,5.33-5.818,9.787-8.881,13.367c-3.065,3.598-6.134,5.816-9.207,6.643c-1.891,0.508-3.525-0.039-4.904-1.646
			c-1.378-1.61-2.537-3.854-3.476-6.728c-0.937-2.879-1.605-6.166-2.004-9.855c-0.398-3.693-0.521-7.457-0.369-11.288
			c0.32-8.047,1.179-16.923,2.574-26.614c1.396-9.672,3.234-19.313,5.519-28.914c2.282-9.563,4.989-18.644,8.124-27.229
			c3.131-8.539,6.6-15.865,10.409-21.979c1.655-2.637,3.355-4.947,5.101-6.931C157.072,120.845,158.451,119.794,159.464,119.667z
			 M163.271,168.663c0.014-0.367-0.003-0.959-0.052-1.773c-0.049-0.813-0.386-1.168-1.013-1.061
			c0.149,0.156,0.292,0.497,0.426,1.023c0.142,0.342,0.262,0.777,0.358,1.312c0.095,0.534,0.126,1.259,0.09,2.181l-0.032,0.828
			c0.021-0.552,0.06-1.016,0.117-1.392C163.221,169.407,163.256,169.033,163.271,168.663z"/>
		<path fill="#7CC143" stroke="#957348" stroke-width="5" d="M188.226,140.972c1.953-12.597,3.935-24.934,5.944-37.013
			c2.006-12.037,4.124-23.466,6.353-34.287c2.227-10.775,4.675-20.814,7.348-30.112c2.668-9.247,5.724-17.494,9.166-24.734
			c1.677-3.512,3.563-6.401,5.658-8.675c2.095-2.263,4.267-3.476,6.516-3.651c1.547,0,2.946,0.859,4.198,2.575
			c1.174,1.71,2.116,3.975,2.825,6.792c0.71,2.811,1.258,5.833,1.643,9.067c0.384,3.23,0.616,6.461,0.691,9.694
			c0.076,3.232,0.067,6.124-0.026,8.68c-0.273,7.5-1.017,15.152-2.232,22.974c-1.215,7.839-2.749,15.851-4.598,24.041
			c-1.925,8.059-4.142,16.134-6.651,24.238c-2.512,8.146-5.234,16.144-8.166,23.998c-2.934,7.898-5.991,15.428-9.173,22.586
			c-3.185,7.201-6.406,13.841-9.667,19.908c-0.217,1.629-0.676,4.492-1.374,8.596c-0.699,4.107-1.46,8.81-2.281,14.102
			c-0.823,5.301-1.693,10.84-2.611,16.617c-0.92,5.789-1.74,10.982-2.458,15.586c2.104-2.113,4.308-4.775,6.61-7.979
			c2.3-3.19,4.532-6.615,6.694-10.272c1.662-2.828,3.377-6.009,5.144-9.54c1.766-3.518,3.405-6.779,4.918-9.791
			c1.513-3.001,2.833-5.564,3.962-7.695c1.129-2.127,1.89-3.229,2.282-3.311c1.097-0.225,1.595,1.048,1.494,3.813
			c-0.115,3.112-0.649,6.528-1.605,10.254c-0.956,3.734-2.125,7.479-3.51,11.24c-1.386,3.771-2.821,7.303-4.306,10.598
			c-1.486,3.304-2.819,6.146-3.997,8.521c-1.18,2.384-2.537,4.815-4.071,7.298c-1.535,2.488-3.106,4.907-4.714,7.254
			c-1.608,2.355-3.229,4.543-4.865,6.566c-1.636,2.025-3.146,3.85-4.533,5.464c-1.473,1.82-2.652,3.119-3.538,3.897
			c-1.047,7.037-2.161,14.283-3.34,21.742c-1.181,7.467-2.215,14.639-3.1,21.508c0.663,5.123,1.417,10.426,2.264,15.912
			c0.847,5.467,1.159,11.158,0.934,17.078c-0.628,18.625-3.501,33.533-8.624,44.799c-5.129,11.359-11.833,18.803-20.105,22.248
			c-1.034,0.432-1.847,0.223-2.441-0.621c-0.592-0.848-0.821-3.031-0.685-6.547c0.079-2.039,0.298-4.131,0.654-6.277
			c0.358-2.148,0.695-4.287,1.012-6.414c1.052-6.969,2.024-13.391,2.917-19.275c0.893-5.879,1.76-11.65,2.604-17.313
			c0.844-5.656,1.688-11.354,2.534-17.084c0.847-5.729,1.703-11.723,2.568-17.98c0.229-1.885,0.476-3.73,0.741-5.535
			c0.265-1.805,0.515-3.74,0.75-5.803c-0.296-2.443-0.576-4.801-0.84-7.072c-0.262-2.281-0.473-4.393-0.632-6.34
			c-0.706-7.964-0.594-14.902,0.335-20.797c1.178-8.314,4.395-14.973,9.651-19.955l1.598-11.207L188.226,140.972z M168.438,274.048
			c0.192-0.957,0.297-1.664,0.315-2.119c0.018-0.457,0.08-1.063,0.187-1.813l0.353-3.076c-0.881,0.608-1.269,1.575-1.165,2.902
			C168.232,271.265,168.336,272.634,168.438,274.048z M173.964,337.64c-0.192,0.961-0.348,1.951-0.466,2.979
			c-0.116,1.021-0.231,2.002-0.346,2.938c-0.42,2.828-0.819,5.609-1.198,8.34c-0.377,2.73-0.774,5.426-1.188,8.084
			c0.396-0.148,0.725-0.543,0.983-1.176c0.26-0.637,0.522-1.361,0.787-2.174c0.838-3.527,1.417-6.416,1.738-8.672
			c0.321-2.258,0.535-4.295,0.644-6.115c0.109-1.822,0.113-3.471,0.013-4.949c-0.099-1.482-0.151-3.203-0.154-5.16
			c-0.193,0.959-0.349,1.949-0.466,2.975C174.193,335.728,174.079,336.706,173.964,337.64z M228.785,29.94
			c-0.853,0.027-1.942,1.746-3.267,5.158c-1.327,3.422-2.797,8.117-4.411,14.088c-1.617,5.99-3.347,12.963-5.193,20.926
			c-1.847,7.991-3.697,16.532-5.548,25.626c-1.854,9.126-3.66,18.538-5.42,28.237c-1.763,9.729-3.361,19.199-4.793,28.402
			c4.173-7.701,8.244-17.38,12.211-29.014c3.961-11.544,7.415-23.594,10.361-36.161c1.468-6.172,2.723-12.351,3.765-18.545
			c1.041-6.18,1.86-12.121,2.457-17.826c0.371-3.799,0.624-7.507,0.756-11.121c0.158-4.303,0.12-6.965-0.113-7.989
			C229.355,30.698,229.087,30.105,228.785,29.94z"/>
		<path fill="#7CC143" stroke="#957348" stroke-width="5" d="M245.259,152.979c0.024-0.67,0.035-1.508,0.032-2.512
			c-0.003-1.002-0.084-1.99-0.244-2.97c-0.159-0.978-0.423-1.771-0.791-2.379c-0.368-0.606-0.943-0.849-1.726-0.72
			c-2.038,0.335-3.947,1.957-5.728,4.867c-1.781,2.92-3.379,6.709-4.796,11.367c-1.418,4.672-2.625,9.992-3.624,15.965
			c-0.999,5.982-1.735,12.263-2.209,18.83c-0.214,5.83,0.248,10.231,1.384,13.193c1.137,2.954,3.082,4.096,5.832,3.436
			c1.727-0.414,3.658-1.59,5.792-3.526c2.134-1.929,4.345-4.408,6.634-7.438c2.288-3.019,4.568-6.395,6.843-10.125
			c2.272-3.715,4.375-7.584,6.308-11.605c0.578-0.941,1.245-2.186,2-3.732c0.755-1.545,1.446-2.383,2.073-2.51
			c0.47-0.095,0.821,0.446,1.052,1.623c0.231,1.178,0.324,2.42,0.277,3.734c-0.099,2.793-0.683,6.101-1.752,9.924
			c-1.07,3.832-2.496,7.794-4.276,11.893c-1.781,4.111-3.838,8.262-6.168,12.459c-2.332,4.215-4.788,8.065-7.367,11.549
			c-2.581,3.5-5.24,6.492-7.979,8.977c-2.74,2.492-5.37,4.082-7.887,4.758c-3.385,0.907-6.243,0.779-8.577-0.391
			c-2.333-1.182-4.208-3.176-5.622-5.989c-1.415-2.824-2.396-6.286-2.945-10.381c-0.547-4.101-0.734-8.513-0.56-13.228
			c0.363-9.772,1.673-19.873,3.925-30.271c2.25-10.354,5.168-19.88,8.752-28.563c3.581-8.623,7.65-15.814,12.211-21.578
			c4.558-5.711,9.371-8.892,14.444-9.578c1.873-0.254,3.463,0.32,4.772,1.719c1.31,1.395,2.39,3.23,3.241,5.504
			c0.851,2.271,1.442,4.781,1.772,7.533c0.33,2.75,0.454,5.283,0.372,7.603c-0.111,3.144-0.729,6.82-1.851,11.044
			c-1.123,4.232-2.541,8.531-4.253,12.896c-1.713,4.38-3.621,8.732-5.723,13.054c-2.103,4.343-4.229,8.248-6.379,11.716
			c-2.151,3.483-4.204,6.369-6.157,8.654c-1.954,2.293-3.598,3.594-4.934,3.898c-0.079,0.018-0.314,0.07-0.707,0.16
			s-0.858,0.026-1.395-0.191c-1.541-0.5-2.637-1.951-3.288-4.359c-0.652-2.413-0.955-4.222-0.911-5.427
			c0.044-1.203,0.425-2.052,1.144-2.546c2.063-0.947,4.197-2.756,6.401-5.42c2.204-2.649,4.207-5.715,6.01-9.188
			c1.803-3.463,3.319-7.11,4.549-10.944C244.461,159.938,245.138,156.345,245.259,152.979z"/>
		<path fill="#7CC143" stroke="#957348" stroke-width="5" d="M313.172,165.78c0.391-0.081,0.688,0.318,0.893,1.197
			c0.204,0.881,0.283,2.016,0.237,3.404c-0.134,4.018-1.267,8.832-3.4,14.463c-2.136,5.658-4.816,11.28-8.042,16.875
			c-3.229,5.635-6.786,10.604-10.672,14.91c-3.889,4.336-7.646,7.004-11.267,7.978c-0.867,0.233-1.771,0.432-2.713,0.601
			c-0.942,0.166-1.882,0.289-2.82,0.369c-1.885,0.344-3.7,0.387-5.446,0.13c-1.746-0.261-3.362-0.885-4.848-1.87
			c-1.486-0.992-2.778-2.486-3.877-4.486c-1.099-2.004-1.865-4.59-2.298-7.754c-0.08,0.02-0.112-0.137-0.101-0.469
			c0.047-1.318,0.75-3.576,2.109-6.765c1.359-3.181,2.747-6.072,4.164-8.681c1.416-2.598,2.37-4.274,2.864-5.035
			c0.494-0.758,1.172-1.235,2.037-1.428c0.471-0.105,0.734,0.16,0.79,0.793c0.604,2.772,1.58,4.93,2.93,6.469
			c1.348,1.533,2.651,2.15,3.909,1.854c0.786-0.187,1.389-0.729,1.81-1.628c3.494-6.391,5.91-12.103,7.253-17.157
			c1.341-5.041,2.091-9.869,2.25-14.496c0.109-3.188-0.006-6.059-0.346-8.608c-0.34-2.554-0.724-4.981-1.149-7.288
			c-0.426-2.309-0.851-4.659-1.274-7.055s-0.659-5.106-0.71-8.127c-1.826,5.57-3.939,11.57-6.34,18.009
			c-2.403,6.473-5.029,13.142-7.876,20.01c-2.851,6.908-5.856,13.771-9.017,20.585c-3.165,6.857-6.415,13.408-9.754,19.65
			c-0.664,1.152-1.193,1.777-1.586,1.875c-0.393,0.098-0.633-0.256-0.723-1.061c-0.087-0.807-0.108-1.875-0.061-3.211
			c0.197-5.507,0.993-10.322,2.385-14.443c1.394-4.106,2.765-7.623,4.115-10.549c1.855-4.01,3.802-8.436,5.842-13.27
			c2.037-4.814,4.151-10.152,6.342-16.012c2.188-5.83,4.493-12.264,6.916-19.291c2.42-6.993,5.02-14.7,7.797-23.111
			c-0.251-1.727-0.339-3.641-0.267-5.734c0.095-2.738,0.474-5.27,1.137-7.594c0.663-2.318,1.489-4.336,2.479-6.047
			c0.99-1.708,2.103-3.064,3.341-4.075c1.238-1.008,2.52-1.582,3.845-1.722c1.559-0.165,2.824,0.334,3.794,1.493
			c0.971,1.156,1.436,2.364,1.393,3.626c-0.325,2.713-0.634,5.465-0.923,8.256c-0.29,2.792-0.6,5.628-0.932,8.506
			c0.234,4.536,0.708,8.914,1.42,13.132c0.713,4.209,1.406,8.412,2.082,12.609c0.675,4.188,1.252,8.422,1.73,12.708
			c0.478,4.277,0.639,8.766,0.48,13.468c-0.09,2.667-0.3,5.435-0.631,8.306c-0.611,4.182-1.59,8.291-2.938,12.332
			c-1.35,4.057-3.226,8.086-5.629,12.102c2.576-2.488,4.93-5.342,7.063-8.561c2.131-3.207,4.007-6.305,5.624-9.293
			c1.617-2.98,2.985-5.514,4.106-7.6C311.79,166.99,312.624,165.894,313.172,165.78z"/>
		<path fill="#7CC143" stroke="#957348" stroke-width="5" d="M364.686,155.162c0.392-0.08,0.69,0.29,0.899,1.108
			c0.208,0.818,0.292,1.877,0.252,3.177c-0.116,3.756-1.229,8.272-3.341,13.565c-2.114,5.321-4.771,10.619-7.977,15.9
			c-3.208,5.321-6.749,10.031-10.621,14.126c-3.875,4.123-7.625,6.687-11.246,7.659c-0.867,0.232-1.771,0.436-2.713,0.607
			c-0.942,0.172-1.883,0.304-2.822,0.395c-1.885,0.354-3.702,0.424-5.451,0.213c-1.749-0.216-3.369-0.773-4.861-1.675
			c-1.491-0.906-2.791-2.288-3.899-4.146c-1.108-1.863-1.885-4.277-2.332-7.242c-0.08,0.021-0.113-0.125-0.103-0.437
			c0.042-1.239,0.736-3.368,2.083-6.381c1.348-3.004,2.725-5.737,4.133-8.204c1.406-2.457,2.354-4.044,2.845-4.766
			c0.491-0.717,1.168-1.174,2.033-1.366c0.471-0.104,0.735,0.142,0.793,0.733c0.616,2.592,1.603,4.6,2.959,6.021
			c1.356,1.419,2.663,1.977,3.92,1.68c0.786-0.186,1.387-0.703,1.805-1.552c3.47-6.039,5.865-11.423,7.188-16.178
			c1.322-4.739,2.052-9.271,2.191-13.604c0.096-2.988-0.032-5.674-0.383-8.059c-0.352-2.389-0.745-4.657-1.181-6.813
			c-0.437-2.156-0.872-4.354-1.305-6.594c-0.433-2.24-0.681-4.777-0.745-7.607c-1.804,5.238-3.893,10.881-6.269,16.945
			c-2.378,6.096-4.978,12.377-7.799,18.854c-2.824,6.517-5.804,12.992-8.94,19.431c-3.139,6.481-6.366,12.677-9.684,18.587
			c-0.66,1.094-1.187,1.688-1.581,1.784c-0.393,0.099-0.635-0.231-0.728-0.985c-0.091-0.756-0.116-1.759-0.073-3.015
			c0.175-5.174,0.952-9.709,2.329-13.599c1.378-3.875,2.736-7.193,4.076-9.959c1.84-3.789,3.771-7.967,5.792-12.529
			c2.02-4.543,4.113-9.576,6.281-15.1c2.165-5.492,4.445-11.551,6.841-18.166c2.393-6.58,4.961-13.83,7.706-21.737
			c-0.258-1.616-0.355-3.409-0.292-5.373c0.083-2.565,0.452-4.94,1.105-7.125c0.653-2.178,1.472-4.074,2.455-5.685
			c0.983-1.607,2.091-2.885,3.326-3.841c1.234-0.953,2.515-1.498,3.84-1.638c1.559-0.165,2.826,0.293,3.802,1.372
			c0.977,1.076,1.447,2.203,1.409,3.385c-0.314,2.542-0.611,5.12-0.888,7.735c-0.278,2.616-0.576,5.272-0.896,7.971
			c0.253,4.244,0.746,8.338,1.477,12.279c0.731,3.932,1.443,7.858,2.137,11.778c0.693,3.912,1.289,7.867,1.785,11.871
			c0.498,3.998,0.678,8.192,0.539,12.594c-0.078,2.494-0.276,5.088-0.596,7.777c-0.593,3.918-1.555,7.775-2.887,11.576
			c-1.333,3.813-3.194,7.613-5.583,11.406c2.568-2.367,4.912-5.072,7.034-8.116c2.119-3.03,3.982-5.953,5.589-8.771
			c1.604-2.81,2.964-5.195,4.077-7.162C363.309,156.313,364.139,155.276,364.686,155.162z"/>
		<path fill="#7CC143" stroke="#957348" stroke-width="5" d="M391.758,90.83c0.777-0.097,1.502,0.37,2.17,1.397
			c0.668,1.026,1.254,2.266,1.754,3.726c0.5,1.457,0.861,3.067,1.082,4.833c0.219,1.766,0.313,3.271,0.274,4.52
			c-0.032,1.11-0.199,2.103-0.496,2.975c-0.299,0.875-0.765,1.497-1.397,1.869c-2.695,1.662-5.278,4.742-7.748,9.256
			c-2.471,4.541-4.688,9.627-6.649,15.256c-1.964,5.657-3.563,11.445-4.795,17.357c-1.233,5.929-1.914,10.97-2.041,15.111
			c-0.113,3.717,0.262,6.111,1.128,7.184c0.866,1.07,2.086,1.416,3.663,1.041c2.754-0.653,5.502-3.055,8.243-7.182
			c2.738-4.101,5.085-8.92,7.043-14.457c-1.899-1.673-3.364-4.175-4.395-7.509c-1.031-3.343-1.472-7.474-1.326-12.381
			c0.076-2.522,0.5-5.039,1.277-7.543c1.203-3.824,2.919-7.199,5.146-10.124c2.227-2.909,4.355-4.516,6.389-4.83
			s3.753,0.751,5.161,3.186c1.409,2.422,2.021,6.901,1.833,13.445c-0.043,1.5-0.146,3.079-0.309,4.736
			c-0.162,1.656-0.342,3.318-0.539,4.984c1.178-0.361,2.279-0.778,3.307-1.246c1.025-0.467,1.977-0.988,2.852-1.561
			c1.271-0.915,2.407-1.802,3.405-2.66c0.998-0.857,1.897-1.693,2.699-2.51c1.446-1.598,2.442-2.445,2.993-2.546
			c0.625-0.114,0.916,0.628,0.871,2.228c-0.063,2.267-0.494,4.406-1.291,6.418c-0.797,2.017-1.807,3.947-3.024,5.791
			c-0.979,1.535-2.032,2.92-3.159,4.156c-1.126,1.24-2.252,2.381-3.371,3.424c-2.24,1.961-4.41,3.506-6.509,4.637
			c-2.101,1.136-3.817,1.85-5.151,2.141c-1.787,5.047-3.885,10.051-6.295,15.014c-2.412,4.99-5.008,9.569-7.787,13.732
			c-2.783,4.189-5.683,7.736-8.699,10.633c-3.02,2.914-6.066,4.791-9.139,5.617c-1.893,0.509-3.543,0.199-4.953-0.928
			c-1.41-1.131-2.609-2.758-3.598-4.879c-0.986-2.125-1.711-4.58-2.171-7.356c-0.458-2.782-0.644-5.632-0.552-8.551
			c0.191-6.13,0.912-12.919,2.156-20.353c1.244-7.412,2.934-14.818,5.07-22.207c2.135-7.351,4.703-14.343,7.707-20.967
			c3-6.576,6.357-12.238,10.075-16.982c1.615-2.043,3.282-3.84,4.998-5.392C389.378,91.79,390.744,90.956,391.758,90.83z
			 M396.385,127.517c0.008-0.276-0.021-0.719-0.084-1.328c-0.062-0.61-0.406-0.861-1.033-0.754c0.151,0.111,0.303,0.361,0.445,0.752
			c0.148,0.25,0.273,0.572,0.381,0.969c0.104,0.396,0.147,0.939,0.127,1.632l-0.019,0.624c0.012-0.415,0.042-0.766,0.094-1.05
			C396.346,128.077,396.375,127.796,396.385,127.517z"/>
		<path fill="#7CC143" stroke="#957348" stroke-width="5" d="M438.008,118.772c-0.381-0.322-0.916-0.686-1.604-1.086
			c-0.689-0.401-1.377-0.805-2.066-1.211c-0.688-0.405-1.303-0.727-1.841-0.963c-0.538-0.237-0.923-0.336-1.157-0.297
			c-1.412,6.02-3.072,11.842-4.98,17.475c-1.911,5.66-3.891,10.93-5.938,15.807c-2.049,4.904-4.084,9.262-6.104,13.066
			c-2.021,3.824-3.807,6.938-5.358,9.33c-1.058,1.473-1.976,2.203-2.757,2.189c-0.78-0.012-1.546-0.47-2.301-1.375
			c-0.828-1.023-0.904-2.438-0.229-4.229c0.677-1.791,1.712-3.863,3.104-6.217c2.787-4.682,5.179-9.181,7.173-13.502
			c1.991-4.302,3.671-8.519,5.034-12.656c1.363-4.125,2.492-8.227,3.386-12.309c0.894-4.072,1.711-8.289,2.456-12.652
			c-1.479-2.82-2.27-5.159-2.372-7.006c-0.104-1.848-0.177-3.437-0.215-4.763c-0.05-1.058,0.077-2.772,0.377-5.144
			c0.3-2.37,0.704-4.318,1.214-5.845c0.757-2.084,1.65-4.149,2.68-6.191c1.027-2.035,2.068-3.902,3.127-5.601
			c1.055-1.694,2.004-3.043,2.848-4.051c0.842-1.005,1.457-1.527,1.847-1.566c0.466-0.047,1.063,0.123,1.789,0.506
			c0.728,0.383,1.41,0.932,2.05,1.647c0.639,0.716,1.2,1.502,1.682,2.36c0.48,0.856,0.711,1.675,0.69,2.455
			c-1.103,3.375-1.935,6.142-2.497,8.293c-0.563,2.155-1.008,4.199-1.331,6.132c-0.325,1.935-0.259,3.067,0.199,3.396
			c2.894,2.196,5.792,4.14,8.701,5.836c2.909,1.68,5.782,3.375,8.616,5.092c0.684,0.652,1.072,1.382,1.17,2.188
			c0.095,0.809,0.031,1.735-0.19,2.784c-0.222,1.052-0.543,2.183-0.965,3.394c-0.421,1.213-0.804,2.422-1.146,3.625
			c-0.94,3.218-1.886,6.506-2.83,9.867c-0.946,3.371-1.814,6.699-2.604,9.988c-0.79,3.297-1.459,6.446-2.007,9.446
			c-0.549,3.004-0.854,5.668-0.915,7.987c-0.065,2.453,0.491,3.537,1.67,3.26c0.629-0.146,1.467-0.854,2.517-2.121
			c1.047-1.264,2.2-2.831,3.461-4.705c1.258-1.868,2.56-3.866,3.902-5.993c1.342-2.118,2.604-4.089,3.781-5.909
			c1.178-1.814,2.229-3.314,3.156-4.506c0.928-1.188,1.588-1.82,1.979-1.9c1.097-0.225,1.621,0.662,1.57,2.656
			c-0.035,1.375-0.29,2.948-0.765,4.727c-0.475,1.779-1.047,3.615-1.721,5.506c-1.929,5.176-4.156,9.82-6.683,13.934
			c-2.529,4.139-5.146,7.789-7.845,10.945c-2.703,3.176-5.311,5.706-7.819,7.584c-2.511,1.889-4.671,3.077-6.479,3.561
			c-2.988,0.799-4.957-0.045-5.902-2.543c-0.944-2.504-1.354-6.006-1.23-10.498c0.096-3.435,0.414-7.25,0.959-11.441
			c0.545-4.188,1.266-8.475,2.165-12.855c0.899-4.373,1.896-8.787,2.992-13.244C435.547,126.987,436.731,122.767,438.008,118.772z
			 M430.089,88.99c0.007-0.264-0.021-0.688-0.081-1.272c-0.062-0.584-0.404-0.84-1.027-0.762c0.076-0.009,0.244,0.268,0.502,0.828
			c0.256,0.561,0.363,1.568,0.324,3.021C429.992,89.728,430.085,89.123,430.089,88.99z"/>
		<path fill="#7CC143" stroke="#957348" stroke-width="5" d="M554.772,74.585c0.402-0.697,0.842-1.291,1.316-1.781
			c0.477-0.489,1.049-0.91,1.717-1.263c0.668-0.351,1.473-0.692,2.412-1.022c0.938-0.33,2.074-0.738,3.406-1.222
			c2.504-0.836,4.201-1.149,5.094-0.944c0.891,0.205,1.131,0.906,0.721,2.108c-0.002,0.104-0.23,0.97-0.688,2.601
			c-0.457,1.633-0.936,3.402-1.438,5.309c-0.5,1.91-0.979,3.687-1.438,5.333c-0.459,1.649-0.688,2.527-0.689,2.633
			c-1.24,3.994-2.457,8.661-3.645,14.001c-1.189,5.363-2.625,11.303-4.309,17.826c-1.686,6.561-3.715,13.661-6.09,21.323
			c-2.379,7.719-5.377,15.989-8.998,24.845c-0.744,1.854-1.936,4.608-3.576,8.276c-1.645,3.685-3.67,7.838-6.08,12.471
			c-2.41,4.662-5.24,9.578-8.49,14.759c-3.256,5.223-6.859,10.244-10.814,15.063c-0.646,0.804-1.152,1.44-1.516,1.916
			c-0.365,0.474-0.805,0.805-1.318,0.989c-0.516,0.186-1.223,0.179-2.125-0.016c-0.9-0.197-2.211-0.512-3.934-0.941
			c-0.939-0.25-1.857-0.508-2.758-0.773c-0.896-0.27-1.539-0.629-1.922-1.079c-0.383-0.452-0.428-1.11-0.133-1.973
			c0.297-0.864,1.207-2.024,2.736-3.479c3.211-2.951,6.34-6.662,9.385-11.123c3.041-4.429,5.893-9.244,8.555-14.445
			c2.66-5.168,5.107-10.598,7.344-16.293c2.232-5.66,4.148-11.197,5.748-16.621c1.43-4.799,2.652-9.225,3.674-13.282
			c1.02-4.044,1.869-7.517,2.555-10.422c-1.449,2.085-3.188,4.962-5.217,8.644c-2.031,3.702-4.336,7.436-6.918,11.207
			c-2.584,3.801-5.416,7.27-8.496,10.399c-3.082,3.155-6.396,5.222-9.943,6.178c-3.313,0.894-6.012,0.687-8.098-0.628
			c-2.086-1.328-3.723-3.377-4.912-6.143c-1.187-2.778-1.973-6.022-2.354-9.729c-0.383-3.712-0.527-7.543-0.436-11.489
			c0.283-11.959,2.553-23.769,6.799-35.322c4.24-11.411,9.814-22.003,16.721-31.738c6.893-9.532,14.801-17.99,23.721-25.375
			c8.908-7.176,18.244-12.882,28.012-17.17c1.873-0.816,3.783-1.5,5.73-2.049c1.947-0.546,3.465-0.943,4.555-1.194
			c1.244-0.254,2.25-0.215,3.02,0.114c0.771,0.328,1.363,0.764,1.781,1.309c0.416,0.544,0.717,1.117,0.902,1.721
			c0.184,0.603,0.313,1.005,0.387,1.205c0.074,0.201,0.281,0.65,0.617,1.346c0.338,0.694,0.578,1.444,0.721,2.249
			c0.143,0.806,0.051,1.623-0.271,2.456c-0.324,0.833-1.109,1.493-2.359,1.979c-0.391,0.128-1.133,0.431-2.227,0.91
			c-1.096,0.482-2.346,1.053-3.752,1.714c-1.408,0.665-2.838,1.333-4.283,2.008c-1.447,0.677-2.682,1.314-3.699,1.913
			c-3.451,1.944-7.221,4.332-11.311,7.176c-4.094,2.883-8.254,6.161-12.48,9.846c-4.23,3.734-8.357,7.892-12.377,12.481
			c-4.025,4.647-7.592,9.601-10.701,14.854c-3.111,5.304-5.668,10.883-7.664,16.727c-2,5.878-3.068,11.847-3.203,17.878
			c-0.035,1.625,0.002,3.465,0.111,5.52c0.111,2.055,0.381,3.986,0.809,5.795c0.43,1.806,1.08,3.271,1.953,4.395
			c0.873,1.121,2.059,1.508,3.551,1.164c1.178-0.271,2.67-1.492,4.475-3.662c1.803-2.156,3.734-4.837,5.795-8.035
			c2.057-3.18,4.199-6.75,6.428-10.699c2.227-3.924,4.354-7.834,6.379-11.725c2.027-3.869,3.912-7.552,5.656-11.054
			c1.742-3.483,3.145-6.49,4.205-9.03c1.068-2.853,1.826-4.847,2.275-5.986C553.823,76.378,554.29,75.401,554.772,74.585z"/>
		<path fill="#7CC143" stroke="#957348" stroke-width="5" d="M620,70.154c0.857-0.12,1.559-0.004,2.1,0.344
			c0.541,0.347,0.809,0.804,0.803,1.369c-0.006,0.472-0.248,1.072-0.723,1.801c-0.637,0.944-1.773,3.124-3.416,6.556
			c-1.645,3.453-3.313,7.385-5.01,11.801c-1.697,4.442-3.225,9-4.576,13.667c-1.354,4.689-2.053,8.65-2.098,11.859
			c-0.025,1.85,0.59,2.625,1.848,2.328c0.707-0.166,1.596-0.761,2.668-1.783c1.07-1.018,2.201-2.26,3.395-3.729
			c1.193-1.463,2.445-3.028,3.76-4.694c1.311-1.66,2.523-3.197,3.637-4.613c1.111-1.41,2.104-2.578,2.975-3.508
			c0.871-0.927,1.504-1.43,1.896-1.51c1.098-0.224,1.639,0.41,1.621,1.898c-0.039,3.539-1.139,7.172-3.295,10.925
			c-2.16,3.782-4.672,7.301-7.533,10.558c-2.863,3.287-5.725,6.123-8.578,8.496c-2.855,2.395-4.955,3.971-6.299,4.719
			c-1.188,0.684-2.488,1.217-3.906,1.596c-3.07,0.82-5.104,0.347-6.094-1.428c-0.994-1.781-1.461-4.426-1.408-7.928l0.016-1.052
			c-3.602,4.993-7.053,8.992-10.352,11.976c-3.303,3.01-6.525,4.943-9.672,5.785c-2.988,0.799-4.992,0.236-6.018-1.691
			c-1.021-1.938-1.5-4.704-1.436-8.295c0.063-3.588,0.473-7.861,1.225-12.811c0.752-4.938,1.738-9.938,2.957-14.994
			c1.219-5.035,2.568-9.84,4.051-14.412c1.479-4.549,3.023-8.39,4.635-11.524c0.402-0.882,1.273-1.783,2.613-2.698
			c1.338-0.911,2.813-1.735,4.42-2.475c1.609-0.737,3.195-1.341,4.762-1.814c1.564-0.471,2.814-0.771,3.754-0.903
			c0.936-0.131,1.674-0.009,2.213,0.363c0.539,0.372,0.807,0.856,0.797,1.453c-0.008,0.498-0.25,1.13-0.729,1.897
			c-0.641,0.992-1.783,3.285-3.438,6.896c-1.656,3.631-3.338,7.767-5.051,12.412c-1.715,4.673-3.256,9.466-4.623,14.375
			c-1.371,4.934-2.084,9.102-2.143,12.488c-0.027,1.744,0.389,2.617,1.25,2.617c2.123-0.602,4.025-2.139,5.707-4.601
			c1.684-2.446,3.193-5.272,4.533-8.471c1.338-3.185,2.563-6.478,3.666-9.886c1.105-3.393,2.146-6.414,3.123-9.067
			c1.381-3.701,2.6-6.94,3.652-9.721c1.053-2.77,2.295-5.142,3.727-7.118c1.432-1.966,3.266-3.569,5.502-4.809
			C613.143,71.569,616.176,70.689,620,70.154z"/>
		<path fill="#7CC143" stroke="#957348" stroke-width="5" d="M677.774,90.639c0.393-0.081,0.703,0.106,0.938,0.557
			c0.23,0.452,0.348,1.052,0.344,1.801c-0.012,2.166-1.004,4.862-2.979,8.107c-1.977,3.271-4.504,6.597-7.582,9.984
			c-3.082,3.424-6.516,6.543-10.303,9.354c-3.789,2.84-7.496,4.76-11.117,5.732c-0.865,0.233-1.771,0.453-2.717,0.658
			c-0.943,0.205-1.889,0.387-2.832,0.542c-1.889,0.415-3.717,0.654-5.484,0.718c-1.768,0.06-3.414-0.102-4.939-0.482
			c-1.525-0.387-2.871-1.08-4.037-2.082c-1.166-1.008-2.012-2.383-2.539-4.123c-0.08,0.02-0.117-0.064-0.115-0.253
			c0.01-0.751,0.65-2.101,1.928-4.042c1.275-1.934,2.59-3.704,3.939-5.314c1.35-1.601,2.262-2.638,2.734-3.113
			c0.477-0.474,1.145-0.808,2.01-1c0.471-0.104,0.744,0.019,0.818,0.367c0.688,1.489,1.734,2.596,3.139,3.316
			c1.404,0.715,2.734,0.921,3.99,0.625c0.787-0.186,1.379-0.55,1.773-1.094c3.328-3.899,5.592-7.297,6.791-10.217
			c1.199-2.906,1.811-5.634,1.83-8.194c0.016-1.766-0.188-3.336-0.604-4.712c-0.42-1.379-0.877-2.686-1.375-3.924
			c-0.496-1.24-0.994-2.505-1.49-3.796c-0.498-1.293-0.814-2.776-0.957-4.445c-1.668,3.219-3.613,6.708-5.838,10.477
			c-2.225,3.801-4.668,7.745-7.33,11.836c-2.666,4.131-5.488,8.269-8.473,12.412c-2.986,4.188-6.068,8.227-9.252,12.119
			c-0.637,0.727-1.15,1.139-1.543,1.234c-0.395,0.098-0.646-0.078-0.76-0.526c-0.111-0.448-0.164-1.056-0.152-1.821
			c0.041-3.156,0.703-5.979,1.986-8.459c1.283-2.47,2.563-4.597,3.836-6.383c1.75-2.443,3.582-5.124,5.492-8.035
			c1.91-2.892,3.879-6.075,5.912-9.548c2.027-3.445,4.156-7.225,6.385-11.333c2.227-4.072,4.607-8.539,7.148-13.388
			c-0.303-0.944-0.449-2.002-0.438-3.171c0.016-1.527,0.318-2.955,0.916-4.281c0.596-1.323,1.365-2.484,2.309-3.483
			c0.941-0.995,2.02-1.8,3.23-2.419c1.211-0.616,2.48-0.993,3.807-1.133c1.559-0.165,2.842,0.049,3.852,0.638
			c1.01,0.586,1.512,1.224,1.506,1.918c-0.244,1.502-0.471,3.025-0.676,4.57c-0.207,1.545-0.434,3.117-0.68,4.713
			c0.371,2.47,0.979,4.836,1.822,7.096c0.844,2.25,1.668,4.494,2.475,6.732c0.805,2.229,1.514,4.488,2.125,6.779
			c0.611,2.284,0.91,4.706,0.895,7.272c-0.01,1.455-0.137,2.977-0.383,4.566c-0.488,2.329-1.348,4.657-2.582,6.989
			c-1.234,2.346-3.002,4.738-5.301,7.187c2.52-1.633,4.803-3.437,6.854-5.409c2.049-1.959,3.842-3.828,5.379-5.606
			c1.535-1.769,2.836-3.269,3.898-4.5C676.42,91.422,677.227,90.752,677.774,90.639z"/>
		<path fill="#7CC143" stroke="#957348" stroke-width="5" d="M698.047,16.513c0.311-0.963,0.641-1.51,0.988-1.64
			c0.35-0.129,0.834-0.204,1.455-0.223c1.008,0.127,2.072,0.213,3.195,0.256c1.123,0.044,2.131,0.168,3.023,0.373
			c0.891,0.205,1.605,0.549,2.148,1.034c0.543,0.483,0.775,1.229,0.697,2.235c-0.465,1.334-1.068,3.143-1.805,5.43
			c-0.738,2.296-1.518,4.603-2.332,6.921c-0.818,2.328-1.639,4.371-2.455,6.127c-0.82,1.763-1.463,2.708-1.93,2.831
			c-0.389,0.036-0.914,0.043-1.574,0.02c-0.662-0.024-1.344-0.043-2.043-0.059c-0.701-0.015-1.361,0.005-1.984,0.063
			c-0.623,0.057-1.127,0.184-1.518,0.38c-0.623,0.058-0.951-0.011-0.99-0.209c-0.039-0.198,0.02-0.504,0.176-0.921
			c0.236-0.985,0.629-2.284,1.178-3.894c0.547-1.606,1.098-3.408,1.645-5.405c0.549-1.991,1.039-4.113,1.471-6.367
			C697.823,21.213,698.042,18.898,698.047,16.513z"/>
	</g>
</g>
</svg>
